<svg width="224" height="216" viewBox="0 0 224 216" fill="none" xmlns="http://www.w3.org/2000/svg">
<g clip-path="url(#clip0_2102_534)">
<g filter="url(#filter0_d_2102_534)">
<path d="M192.185 216H31.8215C30.8916 216 30.0024 215.633 29.3643 214.985C28.7263 214.337 28.3869 213.467 28.4276 212.57L36.064 57.9338C36.1522 56.1861 37.6388 54.8181 39.4579 54.8181H184.549C186.361 54.8181 187.855 56.1861 187.943 57.9338L195.579 212.57C195.62 213.467 195.287 214.337 194.642 214.985C193.998 215.633 193.108 216 192.185 216ZM35.3784 209.454H188.622L181.311 61.3636H42.6889L35.3784 209.454Z" fill="black"/>
<path d="M31.8215 215.5H192.185C192.977 215.5 193.738 215.185 194.288 214.633C194.834 214.084 195.114 213.351 195.08 212.594C195.08 212.594 195.08 212.593 195.08 212.593L187.443 57.959L187.443 57.9584M31.8215 215.5L36.064 57.9338C36.1522 56.1861 37.6388 54.8181 39.4579 54.8181H184.549C186.361 54.8181 187.855 56.1861 187.943 57.9338L187.443 57.9584M31.8215 215.5C31.0218 215.5 30.2621 215.185 29.7206 214.635C29.1782 214.084 28.8931 213.348 28.927 212.594C28.9271 212.594 28.9271 212.593 28.9271 212.593L36.5633 57.959C36.5633 57.9589 36.5633 57.9588 36.5633 57.9587M31.8215 215.5L36.5633 57.9587M187.443 57.9584C187.369 56.4933 186.111 55.3181 184.549 55.3181H39.4579C37.8893 55.3181 36.6375 56.4928 36.5633 57.9587M187.443 57.9584L36.5633 57.9587M34.879 209.43L34.8531 209.954H35.3784H188.622H189.147L189.121 209.43L181.81 61.3389L181.787 60.8636H181.311H42.6889H42.213L42.1895 61.3389L34.879 209.43Z" stroke="black"/>
</g>
<path d="M148.688 74.4545C146.815 74.4545 145.294 72.9884 145.294 71.1818V38.6509C145.294 20.952 130.361 6.54545 112 6.54545C93.6387 6.54545 78.7054 20.952 78.7054 38.6509V71.1818C78.7054 72.9884 77.1849 74.4545 75.3114 74.4545C73.438 74.4545 71.9175 72.9884 71.9175 71.1818V38.6509C71.9175 17.3389 89.8986 0 112 0C134.101 0 152.082 17.3389 152.082 38.6509V71.1818C152.082 72.9884 150.569 74.4545 148.688 74.4545Z" fill="black"/>
<path d="M76.2053 114.305C76.2051 114.305 76.2049 114.304 76.0123 114.766L76.0212 114.266L76.0205 114.266L76.0174 114.266L76.0042 114.266L75.9499 114.264C75.9016 114.263 75.8293 114.261 75.7346 114.257C75.5454 114.251 75.2671 114.239 74.9135 114.219C74.2061 114.179 73.1983 114.105 72.0002 113.973C69.6007 113.709 66.4518 113.21 63.4277 112.275C60.3934 111.336 57.5414 109.975 55.6814 108.021C53.9214 106.172 53.0261 103.771 53.7541 100.58C60.9709 100.858 65.3893 100.758 68.015 100.216C69.353 99.9397 70.2997 99.5354 70.9093 98.9432C71.5426 98.328 71.7518 97.5712 71.7462 96.7477L71.7462 96.7472C71.7313 94.79 72.9107 89.5695 76.6202 84.7876C80.3066 80.0355 86.4911 75.7171 96.5132 75.5C104.23 75.5009 109.744 77.4777 113.546 80.5786C117.35 83.6805 119.492 87.9476 120.39 92.6201C122.193 101.996 118.966 112.898 114.269 118.882L114.268 118.883C113.689 119.621 113.4 120.527 113.556 121.472C113.711 122.415 114.298 123.327 115.333 124.111C117.385 125.666 121.294 126.799 127.732 126.799C143.106 126.799 153.053 121.244 159.315 117.747C160.962 116.827 162.355 116.049 163.524 115.553C164.949 114.948 165.9 114.819 166.584 115.137C167.26 115.452 167.866 116.295 168.334 118.182C168.796 120.046 169.09 122.785 169.266 126.664C169.442 130.535 169.5 135.512 169.5 141.836C169.5 156.691 161.217 167.842 149.808 175.301C138.391 182.767 123.886 186.5 111.594 186.5C99.3172 186.5 87.6709 182.483 79.1032 175.927C70.5358 169.371 65.0767 160.304 65.0767 150.19C65.0767 140.046 69.0305 134.453 72.9998 130.734C74.3464 129.472 75.6745 128.442 76.8792 127.508C77.4773 127.044 78.045 126.604 78.5695 126.17C79.3449 125.529 80.0252 124.902 80.5187 124.253C81.0157 123.599 81.3444 122.895 81.371 122.106C81.4666 119.312 80.1603 117.352 78.8536 116.108C78.2016 115.487 77.5452 115.039 77.0519 114.746C76.8047 114.599 76.5971 114.491 76.4494 114.418C76.3755 114.381 76.3165 114.354 76.2749 114.335C76.2653 114.331 76.2565 114.327 76.2488 114.323C76.2399 114.32 76.2322 114.316 76.2259 114.313L76.2118 114.307L76.2074 114.306L76.2059 114.305L76.2053 114.305ZM90.6294 93.5746C90.6294 90.5212 88.2298 88.0086 85.2361 88.0086C82.2452 88.0086 79.8429 90.5211 79.8429 93.5746C79.8429 96.6309 82.2453 99.1407 85.2361 99.1407C88.2296 99.1407 90.6294 96.6307 90.6294 93.5746Z" fill="black" stroke="black"/>
</g>
<defs>
<filter id="filter0_d_2102_534" x="24.4243" y="54.8181" width="175.158" height="169.182" filterUnits="userSpaceOnUse" color-interpolation-filters="sRGB">
<feFlood flood-opacity="0" result="BackgroundImageFix"/>
<feColorMatrix in="SourceAlpha" type="matrix" values="0 0 0 0 0 0 0 0 0 0 0 0 0 0 0 0 0 0 127 0" result="hardAlpha"/>
<feOffset dy="4"/>
<feGaussianBlur stdDeviation="2"/>
<feComposite in2="hardAlpha" operator="out"/>
<feColorMatrix type="matrix" values="0 0 0 0 0 0 0 0 0 0 0 0 0 0 0 0 0 0 0.25 0"/>
<feBlend mode="normal" in2="BackgroundImageFix" result="effect1_dropShadow_2102_534"/>
<feBlend mode="normal" in="SourceGraphic" in2="effect1_dropShadow_2102_534" result="shape"/>
</filter>
<clipPath id="clip0_2102_534">
<rect width="224" height="216" fill="white"/>
</clipPath>
</defs>
</svg>
